# xmcd CD database file
#
# Track frame offsets:
#	150
#	12192
#	27635
#	43077
#	53640
#	67550
#	79912
#	92285
#	105895
#	119045
#	129277
#	140635
#
# Disc length: 2039 seconds
#
# Revision: 0
# Processed by: cddbd v1.4PL0 Copyright (c) Steve Scherf et al.
# Submitted via: Feurio! 1.64 - http://www.feurio.com
#
DISCID=9207f50c
DTITLE=Fred Bertelmann - Die grössten Erfolge
DYEAR=1900
DGENRE=Schlager
TTITLE0=Über den Gartenzaun
TTITLE1=Schwalbenlied
TTITLE2=Als Erinnerung
TTITLE3=Herzliebchen mein unterm Regendach
TTITLE4=Was weiss die Welt von dir und mir
TTITLE5=Unter dem Sternenzelt
TTITLE6=Drüben in der Heimat
TTITLE7=Auf der Heide blün´n die letzen Rosen
TTITLE8=Man kann alles nur einmal Erleben
TTITLE9=Warum ich dich Liebe
TTITLE10=Es wird in hundert Jahren wieder so ein Frühling sein 
TTITLE11=Was der Sommervogel sang
EXTD=Pepi
EXTT0=
EXTT1=
EXTT2=
EXTT3=
EXTT4=
EXTT5=
EXTT6=
EXTT7=
EXTT8=
EXTT9=
EXTT10=
EXTT11=
PLAYORDER=
